<svg width="1822" height="1076" viewBox="0 0 1822 1076" fill="none" xmlns="http://www.w3.org/2000/svg">
<path d="M230.5 597.3V634.293L247.154 650.946L263.707 667.5H277.8H291.5V614V560.5H261H230.5V597.3Z" stroke="black"/>
<path d="M295.5 614V667.5H331.5H367.5V614V560.5H331.5H295.5V614Z" stroke="black"/>
<path d="M371.5 614V667.5H399.5H427.5V614V560.5H399.5H371.5V614Z" stroke="black"/>
<path d="M431.5 614V667.5H475H518.5V614V560.5H475H431.5V614Z" stroke="black"/>
<path d="M522.5 614V667.5H559.5H596.5V614V560.5H559.5H522.5V614Z" stroke="black"/>
<path d="M661.646 572.854L661.5 572.707V572.5V566.3V560.5H631H600.5V614V667.5H643.5H686.5V632.7V597.707L674.146 585.354L661.646 572.854Z" stroke="black"/>
<path d="M690.5 634.3V667.5H707.8H725.293L733.146 659.646L740.793 652L715.346 626.554L690.5 601.707V634.3Z" stroke="black"/>
<path d="M775.538 616.742C775.538 616.743 775.538 616.741 775.538 616.739C775.538 616.741 775.538 616.742 775.538 616.742ZM775.532 616.705C775.531 616.702 775.53 616.698 775.529 616.693C775.51 616.612 775.457 616.478 775.347 616.278C775.128 615.88 774.732 615.314 774.114 614.54C772.883 612.998 770.829 610.705 767.724 607.418C761.517 600.849 751.147 590.354 734.846 574.054L693.5 532.707L679.554 546.654L665.5 560.707V565.5V570.293L704.854 609.646L744.001 648.794L759.246 633.646C763.495 629.398 767.467 625.351 770.439 622.254C771.926 620.705 773.16 619.396 774.053 618.419C774.5 617.93 774.858 617.527 775.12 617.22C775.342 616.959 775.473 616.792 775.532 616.705Z" stroke="black"/>
<path d="M796.348 596.345L812.792 579.999L771.146 538.354L729.5 496.707L713.054 513.154L696.707 529.5L738.354 571.146L779.999 612.792L796.345 596.347L796.348 596.345Z" stroke="black"/>
<path d="M829.348 563.345L842.792 549.999L801.146 508.354L759.5 466.707L746.054 480.154L732.707 493.5L774.354 535.146L815.999 576.792L829.345 563.348L829.348 563.345Z" stroke="black"/>
<path d="M783.054 443.154L762.707 463.5L804.354 505.146L846 546.793L854.646 538.146L863.5 529.293V506V482.707L833.346 452.554L803.5 422.707L783.054 443.154Z" stroke="black"/>
<path d="M899.354 325.854L854.207 371L884.854 401.646L915.707 432.5H939H962.293L996.146 398.646L1029.79 365L987.646 322.854C975.947 311.154 965.273 300.53 957.486 292.831C953.592 288.981 950.422 285.863 948.206 283.708C947.098 282.631 946.23 281.795 945.631 281.23C945.366 280.98 945.155 280.785 945.001 280.646C944.834 280.797 944.602 281.013 944.306 281.293C943.666 281.9 942.737 282.796 941.55 283.952C939.178 286.263 935.783 289.606 931.614 293.73C923.278 301.98 911.853 313.354 899.354 325.854Z" stroke="black"/>
<path d="M961 263.5L947.5 277L990.3 319.8L1033 362.5L1046.7 348.7L1060.5 335L1018 292.5C994.6 269.1 975.3 250 975 250C974.7 250 968.4 256.1 961 263.5Z" fill="black"/>
<path d="M988.997 218.4V236.7L983.397 242L977.797 247.3L1020.4 289.9L1063 332.5L1078.5 317L1094 301.5V296.8V292H1066.5H1039V246V200H1014H988.997V218.4Z" fill="black"/>
<path d="M1042 270V289H1068H1094V270V251H1068H1042V270Z" fill="black"/>
<path d="M1042 233V248H1068H1094V233V218H1068H1042V233Z" fill="black"/>
<path d="M1042 200V215H1068H1094V200V185H1068H1042V200Z" fill="black"/>
<path d="M1042 166.5V182H1068H1094.1L1093.8 166.7L1093.5 151.5L1067.8 151.2L1042 151V166.5Z" fill="black"/>
<path d="M1012 106V138H1051.3C1088.2 138 1090.8 137.9 1092.3 136.2C1093.8 134.6 1094 130.8 1094 104.2V74H1053H1012V106Z" fill="black"/>
<path d="M880 108.5L845.5 143L875 172.5L904.5 202L936.5 170L968.5 138H988.8H1009V106V74H961.7H914.5L880 108.5Z" fill="black"/>
<path d="M989 174V197H1014H1039V174V151H1014H989V174Z" fill="black"/>
<path d="M938.7 172.8L907 204.5L934.3 231.8L961.5 259L973.8 246.7L986 234.5V187.7V141H978.2H970.5L938.7 172.8Z" fill="black"/>
<path d="M1193 241.5V261H1214.5H1236V241.5V222H1214.5H1193V241.5Z" fill="black"/>
<path d="M1193 281.8V299.5L1209.3 315.8L1225.5 332H1230.8H1236V298V264H1214.5H1193V281.8Z" fill="black"/>
<path d="M1239 277V332H1291.5H1344V277V222H1291.5H1239V277Z" fill="black"/>
<path d="M1347 277V332H1360.5H1374V277V222H1360.5H1347V277Z" fill="black"/>
<path d="M1377 277V332H1392.5H1408V277V222H1392.5H1377V277Z" fill="black"/>
<path d="M1411 277V332H1441H1471L1483.5 325.8L1496 319.5V270.8V222H1453.5H1411V277Z" fill="black"/>
<path d="M1499 270V318L1502.3 316.7C1504 315.9 1513.9 311.1 1524.3 305.9L1543 296.5V259.3V222H1521H1499V270Z" fill="black"/>
<path d="M1495.7 400.8L1480 416.5V432.8V449H1511.5H1543V417V385H1527.2H1511.5L1495.7 400.8Z" fill="black"/>
<path d="M1480 472.5V493H1511.5H1543V472.5V452H1511.5H1480V472.5Z" fill="black"/>
<path d="M1347 430.8V475.5L1355.8 484.3L1364.5 493H1379.8H1395V454.7V416.3L1379.1 401.2L1363.2 386H1355.1H1347V430.8Z" fill="black"/>
<path d="M1246 497.2V608.5L1303.2 551.3L1360.5 494L1352.2 485.7L1344 477.5V431.7V386H1295H1246V497.2Z" fill="black"/>
<path d="M1178 493.5V601H1196.8H1215.5L1225 610.5L1234.4 620L1238.7 615.8L1243 611.6V498.8V386H1210.5H1178V493.5Z" fill="black"/>
<path d="M1111 493.5V601H1143H1175V493.5V386H1143H1111V493.5Z" fill="black"/>
<path d="M1075.2 395.3L1066 404.5L1082.3 420.8L1098.5 437H1103.3H1108V411.5V386H1096.2H1084.5L1075.2 395.3Z" fill="black"/>
<path d="M1052.5 418L1041.5 429L1064.5 452L1087.5 475H1097.7H1108V457.5V440H1102.3H1096.5L1080 423.5L1063.5 407L1052.5 418Z" fill="black"/>
<path d="M1025.7 444.8L1013 457.5L1036.5 481C1049.4 493.9 1060 504.9 1060 505.5C1060 506 1051.8 514.7 1041.8 524.7L1023.5 543L1035.5 555L1047.4 567L1050.5 564L1053.6 561H1080.8H1108V519.5V478H1096.7H1085.5L1062.5 455C1049.9 442.3 1039.3 432 1039 432C1038.7 432 1032.7 437.7 1025.7 444.8Z" fill="black"/>
<path d="M1005.7 464.8L1001 469.6V488.6V507.5L1011 517.5L1020.9 527.4L1021.2 533.7L1021.5 540L1038.7 522.8L1056 505.5L1033.2 482.7L1010.5 460L1005.7 464.8Z" fill="black"/>
<path d="M1052.7 566.7L1050 569.4L1058.5 578.1L1067 586.7V592.7C1067 595.9 1067.5 599.1 1068.2 599.8C1069.1 600.7 1075 601 1088.7 601H1108V582.5V564H1081.7H1055.5L1052.7 566.7Z" fill="black"/>
<path d="M1081.8 613.3L1091 622.5V633.8V645H1134.5H1178L1185.7 653.1L1193.4 661.1L1212.7 641.8L1232 622.5L1222.8 613.3L1213.5 604H1143H1072.5L1081.8 613.3Z" fill="black"/>
<path d="M1091 662.5V677H1139H1187V672.3C1187 668.9 1187.6 667 1189.1 665.4L1191.3 663.1L1184 655.5L1176.7 648H1133.8H1091V662.5Z" fill="black"/>
<path d="M1091.5 744V807.5H1139H1186.5V744V680.5H1139H1091.5V744Z" stroke="black"/>
<path d="M1103 821.5L1113.5 832H1128.2H1143V821.5V811H1117.8H1092.5L1103 821.5Z" fill="black"/>
<path d="M864.5 699.5H877.5H891H891.5V699V691.3C891.5 687.779 891.553 685.874 891.897 684.523C892.227 683.226 892.828 682.428 894.06 681.147L864.5 699.5ZM864.5 699.5V753V807V807.5H864H859.5H855.5V819.5V831.5H938.3H1021.29L1033.45 819.346L1045.5 807.293V742.7V678.5H971.2H896.612L894.06 681.147L864.5 699.5Z" stroke="black"/>
<path d="M1031 667V675H1038.5H1046V667V659H1038.5H1031V667Z" fill="black"/>
<path d="M999 629.5L993.5 635L998.8 640.2L1004 645.5L1009.5 640L1015 634.5L1009.7 629.2L1004.4 624L999 629.5Z" fill="black"/>
<path d="M1010.3 643.2L1004 649.5L998.2 643.7C995 640.6 992 638 991.5 638C990.9 638 982.2 646.3 972 656.5L953.5 675H991.3H1029V666V657H1037.5H1046V653.9C1046 651.4 1044.6 649.4 1039.3 643.9L1032.7 637H1024.6H1016.5L1010.3 643.2Z" fill="black"/>
<path d="M945.7 612.8L925 633.5L936.5 645L948 656.5V666V675.5L975 648.5L1002 621.5L987.3 606.8C974.8 594.3 972.1 592 969.5 592C966.9 592 963.6 594.9 945.7 612.8Z" fill="black"/>
<path d="M892 579.5L881.5 590L902 610.5L922.5 631L941.7 611.8L961 592.5L949.3 580.8L937.5 569H920H902.5L892 579.5Z" fill="black"/>
<path d="M866.5 605L854.5 617L876.8 639.3L899 661.5V668.3V675H922H945V666.7V658.5L912.2 625.7C894.2 607.7 879.3 593 879 593C878.7 593 873.1 598.4 866.5 605Z" fill="black"/>
<path d="M835.2 636.3L819 652.5L840.8 674.3L862.5 696H875.3H888V689.2C888 682.6 888.1 682.3 892 678.5C895.7 674.9 896 674.2 896 669V663.5L874.2 641.7C862.3 629.8 852.3 620 852 620C851.7 620 844.2 627.3 835.2 636.3Z" fill="black"/>
<path d="M800 671.5L783.5 688L794.3 698.8L805 709.5V729.3V749H799.5H794L794.2 790.2L794.5 831.5L823.3 831.8L852 832V818V804H856.5H861L860.8 751.2L860.7 698.5L838.6 676.8L816.5 655L800 671.5Z" fill="black"/>
<path d="M774.7 696.8L769 702.6V729.3V756H780H791V751V746H796.5H802V728.7L801.9 711.5L791.7 701.2C786.1 695.6 781.3 691 781 691C780.7 691 777.9 693.6 774.7 696.8Z" fill="black"/>
<path d="M755.7 714.8L749 721.6V752.3V783H770H791V771V759H778.5H766V733.5C766 703.5 766.3 704.1 755.7 714.8Z" fill="black"/>
<path d="M749 809V832L769.8 831.8L790.5 831.5L790.8 808.7L791 786H770H749V809Z" fill="black"/>
<path d="M601 813.5V833H631H661V813.5V794H631H601V813.5Z" fill="black"/>
<path d="M609 757.5V791H635H661V769.2V747.5L649.2 735.7L637.5 724H623.2H609V757.5Z" fill="black"/>
<path d="M537 778.5V833H567.5H598V812V791H602H606V757.5V724H571.5H537V778.5Z" fill="black"/>
<path d="M423 778.5V833H478.5H534V778.5V724H478.5H423V778.5Z" fill="black"/>
<path d="M356 778.5V833H388H420V778.5V724H388H356V778.5Z" fill="black"/>
<path d="M296 753V782H290H284V807.5V833H318.5H353V778.5V724H324.5H296V753Z" fill="black"/>
<path d="M247.2 740.3L231 756.5V767.8V779H262H293V751.5V724H278.2H263.5L247.2 740.3Z" fill="black"/>
<path d="M231 807.5V833H256H281V807.5V782H256H231V807.5Z" fill="black"/>
<path d="M1038.94 644.248L1038.94 644.246L1032.49 637.5H1025.1H1017.5H1017.29L1017.15 637.354L994.646 614.854L972.293 592.5H966.5H960.5H960.293L960.146 592.354L948.646 580.854L937.293 569.5H920H902.707L826.054 646.154L749.5 722.707V777.3V831.5H885.3H1021.29L1033.45 819.346L1045.5 807.293V729.1V651.003L1038.94 644.248Z" stroke="black"/>
<path d="M1080.5 337L1069.5 348L1077 355.5L1084.5 363L1095.5 352L1106.5 341L1099 333.5L1091.5 326L1080.5 337Z" fill="black"/>
<path d="M338.5 982.5V1075.5H622.5H906.5V956V836.5H587H267.5V862.5V888.5H302.5H338H338.5V889V982.5Z" stroke="black"/>
<path d="M1190.5 738.8V807.5H1196.2H1202.5H1202.71L1202.85 807.646L1232.85 837.545L1232.85 837.546L1262.65 867.141L1465.87 811.118L1669 755.019L1669.3 713.998V713.996L1669.5 672.706L1636.15 639.354C1626.94 630.152 1618.57 621.599 1612.49 615.246C1609.45 612.069 1606.98 609.441 1605.28 607.554C1604.42 606.612 1603.76 605.85 1603.3 605.297C1603.07 605.021 1602.89 604.79 1602.76 604.61C1602.7 604.521 1602.65 604.435 1602.6 604.356C1602.58 604.317 1602.56 604.271 1602.54 604.222C1602.53 604.18 1602.5 604.099 1602.5 604C1602.5 603.898 1602.53 603.815 1602.54 603.773C1602.56 603.724 1602.59 603.678 1602.61 603.638C1602.63 603.602 1602.65 603.564 1602.68 603.525C1602.71 603.479 1602.74 603.431 1602.77 603.382C1602.9 603.2 1603.09 602.965 1603.32 602.686C1603.79 602.125 1604.47 601.355 1605.34 600.41C1607.06 598.519 1609.53 595.908 1612.49 592.822C1618.42 586.651 1626.33 578.574 1634.3 570.548C1642.26 562.522 1650.27 554.545 1656.4 548.573C1659.46 545.588 1662.05 543.102 1663.93 541.361C1664.87 540.491 1665.63 539.803 1666.19 539.331C1666.47 539.096 1666.7 538.908 1666.88 538.777C1666.97 538.712 1667.06 538.654 1667.14 538.61C1667.18 538.588 1667.22 538.564 1667.27 538.545C1667.31 538.529 1667.4 538.5 1667.5 538.5C1667.57 538.5 1667.63 538.513 1667.67 538.526C1667.69 538.532 1667.7 538.538 1667.71 538.543C1667.76 538.559 1667.79 538.579 1667.82 538.595C1667.88 538.628 1667.94 538.671 1668.01 538.715C1668.13 538.806 1668.29 538.934 1668.48 539.092C1668.86 539.411 1669.39 539.876 1670.04 540.469C1671.35 541.656 1673.17 543.369 1675.37 545.476C1679.77 549.692 1685.7 555.494 1692.05 561.846L1714.5 584.293V540.7V496.5H1539.2H1363.71L1277.05 583.154L1190.5 669.707V738.8Z" stroke="black"/>
<path d="M663.554 235.654L529.707 369.5L609.854 449.646L690 529.793L824.146 395.646L958.293 261.5L878.446 181.654C856.347 159.554 836.222 139.479 821.585 124.93C814.266 117.655 808.32 111.762 804.185 107.687C802.117 105.65 800.503 104.069 799.397 102.997C798.844 102.46 798.419 102.053 798.129 101.781C798.084 101.739 798.043 101.7 798.005 101.665C797.896 101.768 797.76 101.899 797.595 102.057C797.119 102.515 796.418 103.199 795.503 104.097C793.674 105.892 790.994 108.539 787.555 111.947C780.677 118.764 770.765 128.623 758.553 140.792C734.128 165.129 700.503 198.704 663.554 235.654Z" stroke="black"/>
<path d="M0.5 697V1000.5H93.5H186.5V697V393.5H93.5H0.5V697Z" stroke="black"/>
<path d="M1193 109.5V219H1380H1567V109.5V-3.26335e-06H1380H1193V109.5Z" fill="black"/>
<path d="M1570 155.5V222H1558H1546V357.5V493H1684H1822V291V89H1696H1570V155.5Z" fill="black"/>
</svg>
